# xmcd
#
# Track frame offsets:
#	150
#	20775
#	38850
#	53850
#	66375
#	76125
#	88500
#	103125
#	120225
#	142875
#	164250
#	180525
#	200100
#	213150
#	226500
#	240450
#	258000
#	271875
#	290625
#	306000
#
# Disc length: 4345 seconds
#
# Revision: 1
# Processed by: cddbd v1.5.1PL0 Copyright (c) Steve Scherf et al.
# Submitted via: EasyCDDAExtractor 7.0.5.1
#
DISCID=0d10f714
DTITLE=Belasi - To najlepsie za dvadsat rokov
DYEAR=2003
DGENRE=Country
TTITLE0=To je ale faro
TTITLE1=Ked idem ulicou
TTITLE2=O moja laska
TTITLE3=Jesen
TTITLE4=Priznavam nerad
TTITLE5=Clovek s gitarou
TTITLE6=Biely vtak
TTITLE7=Kamion vtak
TTITLE8=Kamarati
TTITLE9=Ten svoj vanok
TTITLE10=Pod kridlami divych husi
TTITLE11=Po iskrach
TTITLE12=Piata rychlost
TTITLE13=Zvony
TTITLE14=Electricka
TTITLE15=Domov - Ohio
TTITLE16=Stanica snov
TTITLE17=Kon divoch
TTITLE18=Posledny song
TTITLE19=Dvadsat sviecok
EXTD=
EXTT0=
EXTT1=
EXTT2=
EXTT3=
EXTT4=
EXTT5=
EXTT6=
EXTT7=
EXTT8=
EXTT9=
EXTT10=
EXTT11=
EXTT12=
EXTT13=
EXTT14=
EXTT15=
EXTT16=
EXTT17=
EXTT18=
EXTT19=
PLAYORDER=
